<svg width="19" height="19" viewBox="0 0 19 19" fill="none" xmlns="http://www.w3.org/2000/svg">
<path d="M9.25 1C3.06295 1 1 3.12546 1 9.5C1 15.8745 3.06295 18 9.25 18C15.4371 18 17.5 15.8745 17.5 9.5" stroke="white" stroke-width="1.3" stroke-linecap="round" stroke-linejoin="round"/>
<path fill-rule="evenodd" clip-rule="evenodd" d="M15.9651 2.42804C15.0795 1.62031 13.7265 1.70487 12.9425 2.61736C12.9425 2.61736 9.04586 7.1522 7.69464 8.72631C6.34165 10.2995 7.33343 12.4727 7.33343 12.4727C7.33343 12.4727 9.56671 13.2014 10.8992 11.6503C12.2326 10.0992 16.1489 5.54226 16.1489 5.54226C16.9328 4.62978 16.8499 3.23577 15.9651 2.42804Z" stroke="white" stroke-width="1.3" stroke-linecap="round" stroke-linejoin="round"/>
<path d="M11.9336 3.80371L15.1399 6.72864" stroke="white" stroke-width="1.3" stroke-linecap="round" stroke-linejoin="round"/>
</svg>
