<svg width="18" height="18" viewBox="0 0 18 18" fill="none" xmlns="http://www.w3.org/2000/svg">
<path d="M7.47296 14.212H1" stroke="#636363" stroke-width="1.3" stroke-linecap="round" stroke-linejoin="round"/>
<path fill-rule="evenodd" clip-rule="evenodd" d="M11.5342 14.213C11.5342 16.255 12.2152 16.935 14.2562 16.935C16.2972 16.935 16.9781 16.255 16.9781 14.213C16.9781 12.171 16.2972 11.491 14.2562 11.491C12.2152 11.491 11.5342 12.171 11.5342 14.213Z" stroke="#FFF1E6" stroke-width="1.3" stroke-linecap="round" stroke-linejoin="round"/>
<path d="M10.5059 3.72302H16.9769" stroke="#636363" stroke-width="1.3" stroke-linecap="round" stroke-linejoin="round"/>
<path fill-rule="evenodd" clip-rule="evenodd" d="M6.44391 3.72202C6.44391 1.68102 5.76293 1 3.72195 1C1.68098 1 1 1.68102 1 3.72202C1 5.76402 1.68098 6.444 3.72195 6.444C5.76293 6.444 6.44391 5.76402 6.44391 3.72202Z" stroke="#636363" stroke-width="1.3" stroke-linecap="round" stroke-linejoin="round"/>
</svg>
